<?xml version="1.0" encoding="utf-8"?><svg xml:space="preserve" viewBox="0 0 100 100" y="0" x="0" xmlns="http://www.w3.org/2000/svg" id="Layer_1" version="1.1" width="259px" height="259px" xmlns:xlink="http://www.w3.org/1999/xlink" style="width:100%;height:100%;background-size:initial;background-repeat-y:initial;background-repeat-x:initial;background-position-y:initial;background-position-x:initial;background-origin:initial;background-image:initial;background-color:rgb(255, 255, 255);background-clip:initial;background-attachment:initial;animation-play-state:paused" ><g class="ldl-scale" style="transform-origin:50% 50%;transform:rotate(0deg) scale(0.8, 0.8);animation-play-state:paused" ><circle stroke-miterlimit="10" stroke-width="3.5" stroke="#333" fill="none" r="38" cy="50" cx="50" style="stroke:rgb(51, 51, 51);animation-play-state:paused" ></circle>
<circle stroke="#333" fill="#e0e0e0" stroke-miterlimit="10" stroke-width="3.5" r="5.65" cy="12" cx="50" style="stroke:rgb(51, 51, 51);fill:rgb(255, 182, 6);animation-play-state:paused" ></circle>
<circle r="5.65" stroke="#333" fill="#e0e0e0" stroke-miterlimit="10" stroke-width="3.5" cy="38.257" cx="13.86" transform="rotate(-72.002 13.859 38.255)" style="stroke:rgb(51, 51, 51);fill:rgb(255, 182, 6);animation-play-state:paused" ></circle>
<circle r="5.65" stroke="#333" fill="#e0e0e0" stroke-miterlimit="10" stroke-width="3.5" cy="80.743" cx="27.664" transform="rotate(-53.999 27.665 80.744)" style="stroke:rgb(51, 51, 51);fill:rgb(255, 182, 6);animation-play-state:paused" ></circle>
<circle r="5.65" stroke="#333" fill="#e0e0e0" stroke-miterlimit="10" stroke-width="3.5" cy="80.743" cx="72.336" transform="rotate(-36.002 72.332 80.741)" style="stroke:rgb(51, 51, 51);fill:rgb(255, 182, 6);animation-play-state:paused" ></circle>
<circle r="5.65" stroke="#333" fill="#e0e0e0" stroke-miterlimit="10" stroke-width="3.5" cy="38.257" cx="86.14" transform="rotate(-17.998 86.146 38.258)" style="stroke:rgb(51, 51, 51);fill:rgb(255, 182, 6);animation-play-state:paused" ></circle>
<path stroke-miterlimit="10" fill="#a8b980" stroke-width="3.5" stroke="#333" d="M52.617 47.75h-5.234a8.58 8.58 0 0 0-4.539 1.291c-3.084 1.915-4.453 5.707-3.635 9.243l1.088 4.702A2.6 2.6 0 0 0 42.83 65h14.34c1.21 0 2.261-.835 2.534-2.014l1.088-4.702c.818-3.536-.551-7.328-3.635-9.243a8.585 8.585 0 0 0-4.54-1.291z" style="stroke:rgb(51, 51, 51);fill:rgb(168, 185, 128);animation-play-state:paused" ></path>
<circle stroke-miterlimit="10" stroke-width="3.5" stroke="#333" fill="#f3e4c7" r="8.78" cy="41.78" cx="50" style="stroke:rgb(51, 51, 51);fill:rgb(255, 182, 6);animation-play-state:paused" ></circle>
<g style="animation-play-state:paused" ><g style="animation-play-state:paused" ><path d="M50 17.65v5.6" stroke-miterlimit="10" stroke-width="3.5" stroke="#333" fill="none" style="stroke:rgb(51, 51, 51);animation-play-state:paused" ></path>
<g style="animation-play-state:paused" ><path d="M56.378 22.395H43.622l6.377 6.376z" fill="#333" style="fill:rgb(51, 51, 51);animation-play-state:paused" ></path></g></g></g>
<g style="animation-play-state:paused" ><g style="animation-play-state:paused" ><path d="M19.233 40.003l5.326 1.731" stroke-miterlimit="10" stroke-width="3.5" stroke="#333" fill="none" style="stroke:rgb(51, 51, 51);animation-play-state:paused" ></path>
<g style="animation-play-state:paused" ><path d="M25.717 35.403l-3.942 12.132 8.035-4.095z" fill="#333" style="fill:rgb(51, 51, 51);animation-play-state:paused" ></path></g></g></g>
<g style="animation-play-state:paused" ><g style="animation-play-state:paused" ><path d="M30.985 76.172l3.292-4.531" stroke-miterlimit="10" stroke-width="3.5" stroke="#333" fill="none" style="stroke:rgb(51, 51, 51);animation-play-state:paused" ></path>
<g style="animation-play-state:paused" ><path d="M28.614 68.584l10.32 7.498-1.412-8.907z" fill="#333" style="fill:rgb(51, 51, 51);animation-play-state:paused" ></path></g></g></g>
<g style="animation-play-state:paused" ><g style="animation-play-state:paused" ><path d="M69.015 76.172l-3.292-4.531" stroke-miterlimit="10" stroke-width="3.5" stroke="#333" fill="none" style="stroke:rgb(51, 51, 51);animation-play-state:paused" ></path>
<g style="animation-play-state:paused" ><path d="M61.066 76.082l10.32-7.498-8.907-1.409z" fill="#333" style="fill:rgb(51, 51, 51);animation-play-state:paused" ></path></g></g></g>
<g style="animation-play-state:paused" ><g style="animation-play-state:paused" ><path d="M80.767 40.003l-5.326 1.731" stroke-miterlimit="10" stroke-width="3.5" stroke="#333" fill="none" style="stroke:rgb(51, 51, 51);animation-play-state:paused" ></path>
<g style="animation-play-state:paused" ><path d="M78.225 47.536l-3.942-12.132-4.093 8.035z" fill="#333" style="fill:rgb(51, 51, 51);animation-play-state:paused" ></path></g></g></g>
<metadata xmlns:d="https://loading.io/stock/" style="animation-play-state:paused" ><d:name style="animation-play-state:paused" >user experience</d:name>


<d:tags style="animation-play-state:paused" >user experience,human centric,focus group,target audience,ux,ui,interface design</d:tags>


<d:license style="animation-play-state:paused" >by</d:license>


<d:slug style="animation-play-state:paused" >w0khh1</d:slug></metadata></g><!-- generated by https://loading.io/ --></svg>