 <svg id="Layer_1" enable-background="new 0 0 512 512" height="512" viewBox="0 0 512 512"
   width="512" xmlns="http://www.w3.org/2000/svg"><g><path d="m448 86v368h-320v-448h240z" 
   fill="#fcb406"/><path d="m368 86h80v16h-80z" fill="#fcb406"/><path d="m128 438h320v16h-320z" fill="#fcb406"/>
   <path d="m448 86h-80v-80" fill="#fcb406"/><g><path d="m168 390v116h-8l-32-32-32 32h-8v-116" fill="#fcb406"/>
   <path d="m88 411.271c11.77 6.811 25.423 10.729 40 10.729s28.23-3.918 40-10.729v-21.271h-80z" fill="#fcb406"/>
   <circle cx="128" cy="342" fill="#fcb406" r="64"/>
   <path d="m128 390c-32.635 0-59.545-24.433-63.484-56-.327 2.623-.516 5.289-.516 8 0 35.346 28.654 64 64 64s64-28.654 64-64c0-2.711-.188-5.377-.516-8-3.939 31.567-30.849 56-63.484 56z" fill="#fcb406"/>
   <circle cx="128" cy="342" fill="#fcb406" r="32"/><g fill="#000">
     <path d="m370.485 0h-248.485v272.274c-35.797 3.056-64 33.15-64 69.726 0 21 9.308 39.854 24 52.696v117.304h16.485l29.515-29.515 29.515 29.515h16.485v-52h280v-376.485zm3.515 20.485 59.515 59.515h-59.515zm-212 479.03-34-34-34 34v-96.356c10.075 5.623 21.666 8.842 34 8.842s23.925-3.219 34-8.842zm-34-99.515c-31.981 0-58-26.019-58-58s26.019-58 58-58 58 26.019 58 58-26.019 58-58 58zm314 48h-268v-53.304c14.692-12.842 24-31.696 24-52.696 0-36.575-28.203-66.669-64-69.726v-260.274h228v80h80z"/><path d="m176 64h96v12h-96z"/><path d="m176 96h64v12h-64z"/>
     <path d="m176 144h224v12h-224z"/><path d="m176 176h224v12h-224z"/><path d="m176 240h224v12h-224z"/>
     <path d="m208 272h160v12h-160z"/><path d="m176 208h224v12h-224z"/><path d="m304 320h96v12h-96z"/>
     <path d="m336 352h64v12h-64z"/>
     <path d="m128 304c-20.953 0-38 17.047-38 38s17.047 38 38 38 38-17.047 38-38-17.047-38-38-38zm0 64c-14.337 0-26-11.663-26-26s11.663-26 26-26 26 11.663 26 26-11.663 26-26 26z"/>
</g></g></g></svg>