<svg width="133.60251464843748px" height="135.21750488281248px" xmlns="http://www.w3.org/2000/svg" viewBox="183.19874267578126 7.391247558593761 133.60251464843748 135.21750488281248" style="background: rgba(0, 0, 0, 0);" preserveAspectRatio="xMidYMid"><defs><filter id="editing-jagged" x="-100%" y="-100%" width="300%" height="300%"><feTurbulence result="turb" baseFrequency="0.1" numOctaves="1" seed="1"></feTurbulence><feDisplacementMap in="SourceGraphic" in2="turb" scale="3"></feDisplacementMap></filter></defs><g filter="url(#editing-jagged)"><g transform="translate(208.59000253677368, 98.10500144958496)"><path d="M20.16-45.31L20.16-45.31Q31.49-45.31 37.12-39.65L37.12-39.65L37.12-39.65Q42.75-33.98 42.75-23.17L42.75-23.17L42.75-23.17Q42.75-16.19 40-10.94L40-10.94L40-10.94Q37.25-5.70 32.03-2.85L32.03-2.85L32.03-2.85Q26.82 0 19.58 0L19.58 0L15.87-0.06L15.87-0.06Q12.29-0.19 10.62-0.19L10.62-0.19L10.62-0.19Q5.38-0.19 2.69 0L2.69 0L2.69-1.28L2.69-1.28Q4.99-1.41 6.05-1.79L6.05-1.79L6.05-1.79Q7.10-2.18 7.49-3.26L7.49-3.26L7.49-3.26Q7.87-4.35 7.87-6.78L7.87-6.78L7.87-38.53L7.87-38.53Q7.87-40.96 7.49-42.05L7.49-42.05L7.49-42.05Q7.10-43.14 6.05-43.52L6.05-43.52L6.05-43.52Q4.99-43.90 2.69-44.03L2.69-44.03L2.69-45.31L2.69-45.31Q4.93-45.12 8.90-45.12L8.90-45.12L14.34-45.18L14.34-45.18Q18.69-45.31 20.16-45.31L20.16-45.31ZM18.56-44.16L18.56-44.16Q16.58-44.16 15.58-43.71L15.58-43.71L15.58-43.71Q14.59-43.26 14.21-42.11L14.21-42.11L14.21-42.11Q13.82-40.96 13.82-38.66L13.82-38.66L13.82-6.66L13.82-6.66Q13.82-4.35 14.21-3.20L14.21-3.20L14.21-3.20Q14.59-2.05 15.58-1.60L15.58-1.60L15.58-1.60Q16.58-1.15 18.62-1.15L18.62-1.15L18.62-1.15Q25.41-1.15 29.31-3.62L29.31-3.62L29.31-3.62Q33.22-6.08 34.78-10.82L34.78-10.82L34.78-10.82Q36.35-15.55 36.35-22.91L36.35-22.91L36.35-22.91Q36.35-30.27 34.62-34.91L34.62-34.91L34.62-34.91Q32.90-39.55 29.02-41.86L29.02-41.86L29.02-41.86Q25.15-44.16 18.56-44.16L18.56-44.16ZM65.28-45.31L65.28-44.03L65.28-44.03Q62.98-43.90 61.92-43.52L61.92-43.52L61.92-43.52Q60.86-43.14 60.48-42.05L60.48-42.05L60.48-42.05Q60.10-40.96 60.10-38.53L60.10-38.53L60.10-6.78L60.10-6.78Q60.10-4.35 60.48-3.26L60.48-3.26L60.48-3.26Q60.86-2.18 61.92-1.79L61.92-1.79L61.92-1.79Q62.98-1.41 65.28-1.28L65.28-1.28L65.28 0L65.28 0Q62.34-0.19 57.15-0.19L57.15-0.19L57.15-0.19Q51.65-0.19 48.96 0L48.96 0L48.96-1.28L48.96-1.28Q51.26-1.41 52.32-1.79L52.32-1.79L52.32-1.79Q53.38-2.18 53.76-3.26L53.76-3.26L53.76-3.26Q54.14-4.35 54.14-6.78L54.14-6.78L54.14-38.53L54.14-38.53Q54.14-40.96 53.76-42.05L53.76-42.05L53.76-42.05Q53.38-43.14 52.32-43.52L52.32-43.52L52.32-43.52Q51.26-43.90 48.96-44.03L48.96-44.03L48.96-45.31L48.96-45.31Q51.65-45.12 57.15-45.12L57.15-45.12L57.15-45.12Q62.27-45.12 65.28-45.31L65.28-45.31ZM76.03-7.30L76.03-7.30Q77.70-7.30 78.91-6.08L78.91-6.08L78.91-6.08Q80.13-4.86 80.13-3.20L80.13-3.20L80.13-3.20Q80.13-1.54 78.91-0.32L78.91-0.32L78.91-0.32Q77.70 0.90 76.03 0.90L76.03 0.90L76.03 0.90Q74.37 0.90 73.15-0.32L73.15-0.32L73.15-0.32Q71.94-1.54 71.94-3.20L71.94-3.20L71.94-3.20Q71.94-4.86 73.15-6.08L73.15-6.08L73.15-6.08Q74.37-7.30 76.03-7.30L76.03-7.30Z" fill="#444"></path></g></g><style>text {
  font-size: 64px;
  font-family: Arial Black;
  dominant-baseline: central;
  text-anchor: middle;
}</style></svg>