<svg id="Capa_1" enable-background="new 0 0 512 512" height="512" viewBox="0 0 512 512" width="512" xmlns="http://www.w3.org/2000/svg"><g><path d="m256 0c-74.3 0-141.2 31.6-187.9 82.2-24.5 26.5-39.3 58.6-50.9 93.7-8.4 25.3-11.2 52-11.2 80.2 0 141.4 103.6 246.8 245 246.8 92.3 0 178.3-39.7 223.3-112.9 24-39 37.8-84.8 37.8-133.9-.1-141.5-114.7-256.1-256.1-256.1z" fill="#f8f7f7"/><path d="m477.9 383.7c-44.2 76.7-127 128.3-221.9 128.3-141.4 0-256-114.6-256-256 0-69.3 27.5-132.1 72.2-178.2-21.7 37.6-34.1 81.2-34.1 127.7 0 141.4 114.6 256 256 256 72.1 0 137.3-29.8 183.8-77.8z" fill="#e8e8e8"/><g fill="#7dc3ee"><path d="m96.8 96.8c29.9-29.9 66.8-50.4 107-59.9 2.5-.6 4.6 1.9 3.5 4.3-8.9 19.9-16.5 40.4-22.9 61.3-.4 1.2-1.4 2.1-2.7 2.2-22.4 1.4-41.4 15.3-50.1 34.9-.5 1.2-1.7 1.9-3 1.8l-60.5-.5c-2.5.1-4.1-2.6-2.7-4.7 8.9-14.2 19.4-27.3 31.4-39.4z"/><path d="m294.1 280c-19.7 13.9-38.6 25.2-58 34.3-1.3.6-2.9.2-3.8-.9-8.7-11.5-21.5-19.7-36.3-22.4-1.4-.3-2.4-1.4-2.5-2.8-1.4-21.4-1.3-42.9.1-64.3.1-1.4 1.1-2.6 2.5-2.8 14.4-2.6 27-10.6 35.7-21.7.9-1.1 2.4-1.5 3.7-.9 19.5 9 38.5 20.4 58.3 34.3 1.1.8 1.6 2.2 1.1 3.5-2.2 6.1-3.4 12.8-3.4 19.7 0 7.2 1.3 14.1 3.7 20.5.5 1.3 0 2.7-1.1 3.5z"/><path d="m33.3 256.4c0-19.1 0-38.3 4.6-56.3 2.2-8.6 4.9-17 8.1-25.3.4-1.1 1.5-1.9 2.7-2l76.3-.9c1.4.1 2.6 1.1 2.8 2.5 3.6 18.9 16.3 34.6 33.3 42.3 1.2.5 1.8 1.7 1.8 3-.9 12.3-1.3 24.5-1.3 36.8 0 11.9.4 23.9 1.2 35.8.1 1.3-.6 2.5-1.7 3-17.3 7.9-30 24-33.4 43.3-.2 1.4-1.4 2.4-2.8 2.5-14.8.9-30.5 1-47.4.5-9.1-.3-17.2-2-27-2.7-1.2-.1-2.2-.8-2.7-2-10.3-25.7-14.5-51.9-14.5-80.5z"/><path d="m97.5 414.4c-11.7-11.7-21.8-23.3-30.6-37-1.3-2.1.2-4.9 2.7-4.8 8.9.3 16.4.8 24.7.8 1.9 0 4-.7 5.9-.7 10-.1 19.6-.5 28.8-1.1 1.3-.1 2.5.6 3 1.8 8.8 18.9 27.4 32.4 49.3 33.9 1.3.1 2.3 1 2.7 2.2 3.3 10.8 6.9 21.6 10.8 32.1 3.7 9.8 6.1 18.2 10.3 27.8 1 2.3-1.1 4.8-3.6 4.2-39.7-9.5-74.2-29.4-104-59.2z"/><path d="m464.9 342.7c-21.6 47.6-55.2 84.4-95.7 108-14.2 8.3-29.5 13.4-45.2 18.3-21.8 6.9-42.8 10.6-66.3 10.6-2.8 0-5.6 0-8.3-.2-1.1 0-2.2-.7-2.7-1.7-4.1-8.2-9.8-15.1-13.4-23.5-7.3-16.9-13.7-34.2-19-51.7-.4-1.3.1-2.8 1.3-3.5 17-10.3 28.4-29 28.4-50.3 0-.7 0-1.5 0-2.2 0-1.3.7-2.4 1.8-2.9 21.5-9.7 43.3-22.5 67.3-39.4 1.1-.7 2.5-.8 3.5 0 19.9 13.9 51 18 74.9-5.9 39.8-44.8 5-101.2-41.4-101-12.8 0-24.6 4.1-34.2 11-1.1.8-2.5.7-3.6 0-23.7-16.7-45.3-29.2-66.6-38.9-1.2-.5-1.9-1.7-1.8-2.9.1-1.1.1-2.1.1-3.2 0-21.3-11.3-39.9-28.2-50.2-1.2-.7-1.7-2.2-1.3-3.5 8.1-26.3 18.4-52 30.9-76.8.5-1 1.5-1.7 2.7-1.7 2.6-.1 5.2-.1 7.8-.1 60.1 0 116.6 23.4 159.2 65.9 62.6 62.6 83.8 155.5 49.8 245.6.1 0 0 .1 0 .2z"/></g><path d="m77.3 341.7c-9-.3-18.5-.7-28.2-1.4-1.2-.1-2.2-.8-2.7-2-10.1-25.9-15.5-53.7-15.5-82.3 0-19.6 2.5-38.8 7.3-57.2-.1 2.2-.1 4.5-.1 6.8 0 50 14.4 96.6 39.2 136.1z" fill="#64acdc"/><path d="m203.3 474.9c-40-9.5-76.7-30-106.4-59.8-11.7-11.7-22-24.5-30.7-38.1-1.3-2.1.2-4.9 2.7-4.8 8.9.4 17.4.5 25.7.5h5.7c25.7 29.7 58 53.4 94.7 68.9 3.6 9.8 7.6 19.5 11.8 29 1.1 2.4-1 4.9-3.5 4.3z" fill="#64acdc"/><path d="m370.3 450c-34.3 20.3-73.5 31.1-114.3 31.1-2.8 0-5.6-.1-8.3-.2-1.1 0-2.2-.7-2.7-1.7-4.1-8.2-8-16.6-11.6-25 19.5 4.7 39.8 7.3 60.7 7.3 26.6 0 52.2-4 76.2-11.5z" fill="#64acdc"/><circle cx="185.4" cy="163.4" fill="#7dc3ee" r="27.8"/><circle cx="185.4" cy="348.7" fill="#7dc3ee" r="27.8"/><circle cx="350.3" cy="256" fill="#7dc3ee" r="27.8"/></g></svg>